inDegrees=yes
name=ik_XSDot_20240315_154947_orientations
DataType=double
version=3
OpenSimVersion=4.5-2024-01-10-34fd6af
endheader
time	pelvis_tilt	pelvis_list	pelvis_rotation	pelvis_tx	pelvis_ty	pelvis_tz	hip_flexion_r	hip_adduction_r	hip_rotation_r	knee_angle_r	ankle_angle_r	subtalar_angle_r	mtp_angle_r	hip_flexion_l	hip_adduction_l	hip_rotation_l	knee_angle_l	ankle_angle_l	subtalar_angle_l	mtp_angle_l	lumbar_extension	lumbar_bending	lumbar_rotation
2.51999999999999	39.18771689582044	-5.275754396084036	86.94542609291554	0	0.95	0	-11.39087543391404	1.201500064221411	4.353373193828187	14.27499141691555	0	0	0	4.941775280466671	-20.48406864656858	2.026425104745921	2.965559325810177	0	0	0	0	0	0
2.52999999999999	38.93590586703399	-5.243624393184156	87.79601998082869	0	0.95	0	-11.40088015765493	1.10854761679821	3.456980443399333	14.35355009677444	0	0	0	5.291022087258834	-20.14373800899709	2.963291171180776	2.928819311488676	0	0	0	0	0	0
2.53999999999999	38.7064558346466	-5.130453329450691	88.64000069409458	0	0.95	0	-11.54688876704951	1.035449940308548	2.550950125577067	14.44541624041435	0	0	0	5.487915175346495	-19.84044458634776	3.853703174356151	2.923071623192319	0	0	0	0	0	0
2.54999999999999	38.55453606254304	-5.150109610912094	89.44153745202523	0	0.95	0	-11.62700686796075	1.039065419897796	1.717226947299084	14.57041873351859	0	0	0	5.886452908458878	-19.588027171855	4.748769955561837	2.749881636154779	0	0	0	0	0	0
2.559999999999989	38.39434611387382	-5.084648058867493	90.1485984326125	0	0.95	0	-11.77109607836842	1.025649922553054	0.9768052745661485	14.58938225966692	0	0	0	6.066252988329645	-19.38705204760646	5.478905789933226	2.701119377273546	0	0	0	0	0	0
2.569999999999989	38.27047895364426	-5.025327324783317	90.80060750766238	0	0.95	0	-11.90770718344789	1.058020087644989	0.320021347641905	14.56491206274012	0	0	0	6.261098218426358	-19.21535688221279	6.169088822710324	2.57800179672814	0	0	0	0	0	0
2.579999999999989	38.15175531647483	-5.005327719305557	91.41029012781878	0	0.95	0	-11.99104538713308	1.095753775533577	-0.2909344452378913	14.50933026100511	0	0	0	6.477619175462899	-19.0607771732114	6.815897243298386	2.449123519384274	0	0	0	0	0	0
2.589999999999989	37.99131222368877	-5.033918614416361	91.89385261914838	0	0.95	0	-12.01849730278303	1.066727261183833	-0.8008310022451416	14.46236293862394	0	0	0	6.714939398266765	-18.86967875252179	7.335266979360622	2.322582634819598	0	0	0	0	0	0
2.599999999999989	37.86215590160288	-5.052797100050291	92.32698914923218	0	0.95	0	-12.04770874127018	1.042454912232081	-1.244176004978242	14.43043126954924	0	0	0	6.89789700821582	-18.71643091732909	7.785108914833237	2.224994532437913	0	0	0	0	0	0
2.609999999999988	37.70885170943614	-5.10658546115473	92.71427268851076	0	0.95	0	-12.04134100951714	1.00121663232993	-1.64132266017155	14.43279684968855	0	0	0	7.117257991346886	-18.53363705781406	8.209439132752436	2.085981589967723	0	0	0	0	0	0
2.619999999999988	37.58186085287322	-5.165618502954634	93.09843328126502	0	0.95	0	-12.01763715598934	0.9533214015037279	-2.034541418964389	14.47022345942718	0	0	0	7.289950613489213	-18.38219624364377	8.636700048052536	1.944755403595701	0	0	0	0	0	0
2.629999999999988	37.46473740758516	-5.238959317193487	93.34687223962023	0	0.95	0	-12.00079254537618	0.8941048001075789	-2.297924303949995	14.49711026146877	0	0	0	7.462877903685322	-18.24653283716277	8.907024384079984	1.801669624024398	0	0	0	0	0	0
2.639999999999988	37.35375642913014	-5.308293192527865	93.51976764484576	0	0.95	0	-11.95535567957456	0.8259831559771804	-2.465853585186714	14.49069361211903	0	0	0	7.577366805793242	-18.12581536816879	9.099119828808076	1.69418668630551	0	0	0	0	0	0
2.649999999999987	37.25249085353279	-5.363393625477009	93.64534865414365	0	0.95	0	-11.92363043198789	0.7672209545304526	-2.585301296003703	14.46010346005084	0	0	0	7.6451797103195	-18.03070770004288	9.233467397004247	1.635984223627928	0	0	0	0	0	0
2.659999999999987	37.21222193872216	-5.400975618457831	93.67774252114529	0	0.95	0	-11.93913695624654	0.7707014973005498	-2.586649199652896	14.44129094993967	0	0	0	7.641945419218981	-18.02701623616399	9.246620924717194	1.631576692936114	0	0	0	0	0	0
2.669999999999987	37.06554847153482	-5.477926949183179	93.80513432129125	0	0.95	0	-11.88672476861503	0.657966626292219	-2.736058768008522	14.35237515805128	0	0	0	7.714538760510943	-17.87420833549316	9.371207400170471	1.62427292820359	0	0	0	0	0	0
